HIERARCHY
ROOT Hips
{
	OFFSET -21.947001 39.810204 44.525997
	CHANNELS 6 Xposition Yposition Zposition Zrotation Xrotation Yrotation
	JOINT Chest
	{
		OFFSET -0.201599 0.334099 6.453201
		CHANNELS 6 Xposition Yposition Zposition Zrotation Xrotation Yrotation
		JOINT Chest2
		{
			OFFSET 0.000000 0.000000 3.568001
			CHANNELS 6 Xposition Yposition Zposition Zrotation Xrotation Yrotation
			JOINT Neck
			{
				OFFSET 0.000000 0.000000 8.296402
				CHANNELS 6 Xposition Yposition Zposition Zrotation Xrotation Yrotation
				JOINT Head
				{
					OFFSET 0.000000 0.000000 2.173901
					CHANNELS 6 Xposition Yposition Zposition Zrotation Xrotation Yrotation
					End Site
					{
						OFFSET 0.000000 0.000000 7.891998
					}
				}
			}
			JOINT LeftCollar
			{
				OFFSET 1.927601 0.221401 6.049000
				CHANNELS 6 Xposition Yposition Zposition Zrotation Xrotation Yrotation
				JOINT LeftShoulder
				{
					OFFSET 4.959700 0.000000 0.000000
					CHANNELS 6 Xposition Yposition Zposition Zrotation Xrotation Yrotation
					JOINT LeftElbow
					{
						OFFSET 0.000000 0.000000 -8.654202
						CHANNELS 6 Xposition Yposition Zposition Zrotation Xrotation Yrotation
						JOINT LeftWrist
						{
							OFFSET 0.000000 0.000000 -13.864101
							CHANNELS 6 Xposition Yposition Zposition Zrotation Xrotation Yrotation
							End Site
							{
								OFFSET 0.000000 0.000000 -2.173901
							}
						}
					}
				}
			}
			JOINT RightCollar
			{
				OFFSET -3.155701 -0.764999 6.687801
				CHANNELS 6 Xposition Yposition Zposition Zrotation Xrotation Yrotation
				JOINT RightShoulder
				{
					OFFSET -3.592899 0.000000 0.000000
					CHANNELS 6 Xposition Yposition Zposition Zrotation Xrotation Yrotation
					JOINT RightElbow
					{
						OFFSET 0.000000 0.000000 -10.352398
						CHANNELS 6 Xposition Yposition Zposition Zrotation Xrotation Yrotation
						JOINT RightWrist
						{
							OFFSET 0.000000 0.000000 -12.750301
							CHANNELS 6 Xposition Yposition Zposition Zrotation Xrotation Yrotation
							End Site
							{
								OFFSET 0.000000 0.000000 -2.173901
							}
						}
					}
				}
			}
		}
	}
	JOINT LeftHip
	{
		OFFSET 2.460600 -0.518101 -2.735500
		CHANNELS 6 Xposition Yposition Zposition Zrotation Xrotation Yrotation
		JOINT LeftKnee
		{
			OFFSET 0.000000 -0.000004 -17.005899
			CHANNELS 6 Xposition Yposition Zposition Zrotation Xrotation Yrotation
			JOINT LeftAnkle
			{
				OFFSET 0.000000 0.000000 -19.194401
				CHANNELS 6 Xposition Yposition Zposition Zrotation Xrotation Yrotation
				End Site
				{
					OFFSET 0.000000 -8.134600 0.000000
				}
			}
		}
	}
	JOINT RightHip
	{
		OFFSET -3.115499 -0.679600 -2.320301
		CHANNELS 6 Xposition Yposition Zposition Zrotation Xrotation Yrotation
		JOINT RightKnee
		{
			OFFSET 0.000000 -0.000004 -17.680401
			CHANNELS 6 Xposition Yposition Zposition Zrotation Xrotation Yrotation
			JOINT RightAnkle
			{
				OFFSET 0.000000 0.000000 -16.993797
				CHANNELS 6 Xposition Yposition Zposition Zrotation Xrotation Yrotation
				End Site
				{
					OFFSET 0.000000 -8.842300 0.000000
				}
			}
		}
	}
}
MOTION
Frames: 4
Frame Time: 0.041667
-7.879101 21.566404 20.321592 2558.985123 7.758275 -0.052113 -0.201594 0.334097 6.453207 10.448301 -10.708686 -18.550198 0.000001 0.000003 3.567997 -3.457096 0.180251 -0.161226 -0.000004 0.000003 8.296394 144.764630 -171.704932 209.846251 0.000002 -0.000004 2.173905 -6.252613 5.576891 -13.718516 1.927606 0.221401 6.048995 -41.394191 4.558937 17.224544 4.959702 -0.000001 0.000003 211.009638 186.298573 48.136352 0.000000 0.000002 -8.654200 67.007516 -15.111362 -1.295359 0.000006 -0.000005 -13.864100 4226.737002 -159.070953 189.084840 -3.155704 -0.765003 6.687800 65.950210 16.742740 -29.267046 -3.592892 0.000002 0.000006 -261.561493 193.230956 271.337843 0.000002 -0.000006 -10.352390 -326.106426 -56.538294 -280.033166 0.000004 -0.000004 -12.750301 -24.705839 178.326131 -137.655250 2.460602 -0.518105 -2.735502 -229.323765 -16.188144 92.670238 -0.000003 -0.000008 -17.005899 13.251472 194.147676 -40.580042 -0.000010 -0.000001 -19.194401 605.912584 163.399217 232.200095 -3.115494 -0.679601 -2.320300 -416.076355 -43.252340 -46.245237 -0.000003 -0.000008 -17.680395 -366.625375 202.281530 -306.874908 0.000002 -0.000009 -16.993793 1016.695187 50.910372 -441.129298
-7.841801 21.582106 20.308899 2558.895511 7.765058 0.067859 -0.201597 0.334103 6.453204 10.445682 -10.767878 -18.714793 -0.000001 -0.000004 3.567994 -3.483556 0.188520 -0.165751 -0.000005 0.000000 8.296412 144.677381 -171.587780 209.821704 -0.000000 0.000000 2.173900 -6.224614 5.559578 -13.714812 1.927600 0.221406 6.049003 -41.355846 4.537442 17.160830 4.959702 0.000002 0.000009 210.982440 186.262387 48.115937 -0.000007 0.000001 -8.654196 67.167978 -15.219721 -1.241239 0.000005 0.000001 -13.864100 4226.823554 -159.085092 188.959260 -3.155708 -0.765001 6.687804 65.838099 16.702372 -29.128192 -3.592892 0.000007 0.000004 -261.490213 193.132942 271.353908 -0.000007 0.000002 -10.352393 -325.931272 -56.267296 -279.733621 0.000010 0.000000 -12.750295 -24.930824 178.336704 -137.508264 2.460602 -0.518098 -2.735503 -229.317427 -16.128787 92.686302 -0.000003 -0.000005 -17.005901 13.211984 194.176363 -40.499661 -0.000001 -0.000001 -19.194405 606.021375 163.326147 231.894430 -3.115498 -0.679598 -2.320300 -416.098048 -43.241234 -46.276823 -0.000004 -0.000009 -17.680405 -366.637888 202.330926 -306.815868 0.000000 0.000000 -16.993793 1016.594646 50.914081 -441.265300
-7.803201 21.602108 20.294596 2558.805462 7.783769 0.177536 -0.201597 0.334099 6.453203 10.448373 -10.829483 -18.867313 0.000003 0.000000 3.567998 -3.508517 0.201226 -0.226310 -0.000002 0.000003 8.296400 143.432648 -170.552583 210.602353 0.000000 0.000002 2.173908 -4.662757 5.791687 -14.625044 1.927601 0.221404 6.049006 -41.319127 4.475849 17.138637 4.959702 0.000007 0.000012 211.060236 186.318217 48.178368 0.000000 0.000000 -8.654195 67.334812 -15.440513 -1.096822 -0.000002 -0.000002 -13.864100 4226.896555 -159.111333 188.836699 -3.155697 -0.765002 6.687800 65.718584 16.704003 -28.975974 -3.592896 0.000007 0.000011 -261.418496 193.048972 271.385491 -0.000004 -0.000004 -10.352388 -325.787811 -55.986139 -279.437191 0.000011 0.000001 -12.750299 -25.167135 178.353233 -137.356388 2.460598 -0.518101 -2.735501 -229.308220 -16.056165 92.709518 -0.000003 -0.000010 -17.005899 13.182001 194.200569 -40.415206 -0.000007 0.000000 -19.194399 606.114812 163.245168 231.567428 -3.115498 -0.679596 -2.320302 -416.156104 -43.244165 -46.337745 -0.000005 -0.000011 -17.680395 -366.631605 202.386578 -306.759888 0.000006 -0.000005 -16.993795 1016.472577 50.913036 -441.383435
-7.763801 21.626106 20.278992 2558.711042 7.810406 0.274700 -0.201604 0.334098 6.453204 10.461575 -10.888274 -19.004887 0.000003 0.000006 3.567998 -3.528496 0.203772 -0.230500 -0.000004 0.000003 8.296402 143.454012 -170.499799 210.533109 -0.000001 -0.000000 2.173905 -4.756126 5.733702 -14.533121 1.927599 0.221399 6.048999 -41.283627 4.458174 17.086840 4.959701 0.000004 0.000003 211.043748 186.295595 48.150382 0.000000 -0.000003 -8.654204 67.454450 -15.532535 -1.053889 0.000003 0.000001 -13.864096 4226.966059 -159.145812 188.731719 -3.155702 -0.765006 6.687800 65.612512 16.653553 -28.877876 -3.592890 0.000003 0.000004 -261.430627 192.983594 271.316807 -0.000007 0.000000 -10.352395 -325.497118 -55.717914 -278.933123 0.000004 0.000002 -12.750298 -25.403982 178.374816 -137.205988 2.460598 -0.518104 -2.735504 -229.296909 -15.976176 92.735398 -0.000002 -0.000002 -17.005899 13.162317 194.217180 -40.327619 -0.000004 0.000001 -19.194401 606.191856 163.157742 231.223541 -3.115498 -0.679596 -2.320300 -416.242247 -43.258545 -46.422784 -0.000002 -0.000007 -17.680401 -366.604420 202.446944 -306.706667 0.000004 -0.000001 -16.993793 1016.348650 50.860652 -441.484385
